<?xml version="1.0" standalone="no"?>
<!DOCTYPE svg PUBLIC "-//W3C//DTD SVG 20010904//EN"
 "http://www.w3.org/TR/2001/REC-SVG-20010904/DTD/svg10.dtd">
<svg version="1.0" xmlns="http://www.w3.org/2000/svg"
 width="32.000000pt" height="32.000000pt" viewBox="0 0 32.000000 32.000000"
 preserveAspectRatio="xMidYMid meet">
<metadata>
Created by potrace 1.16, written by Peter Selinger 2001-2019
</metadata>
<g transform="translate(0.000000,32.000000) scale(0.100000,-0.100000)"
fill="#000000" stroke="none">
<path d="M30 301 c-13 -26 -13 -256 0 -282 10 -17 22 -19 130 -19 144 0 140
-4 140 139 l0 101 -36 40 -36 40 -94 0 c-82 0 -95 -2 -104 -19z m172 -38 c2
-22 9 -29 31 -31 l28 -3 -3 -97 -3 -97 -95 0 -95 0 -3 114 c-1 63 0 121 2 128
4 9 26 13 70 13 63 0 65 -1 68 -27z"/>
</g>
</svg>
