<?xml version="1.0" standalone="no"?>
<!DOCTYPE svg PUBLIC "-//W3C//DTD SVG 20010904//EN"
 "http://www.w3.org/TR/2001/REC-SVG-20010904/DTD/svg10.dtd">
<svg version="1.0" xmlns="http://www.w3.org/2000/svg"
 width="32.000000pt" height="32.000000pt" viewBox="0 0 32.000000 32.000000"
 preserveAspectRatio="xMidYMid meet">
<metadata>
Created by potrace 1.16, written by Peter Selinger 2001-2019
</metadata>
<g transform="translate(0.000000,32.000000) scale(0.100000,-0.100000)"
fill="#000000" stroke="none">
<path d="M208 277 c-36 -41 -38 -42 -112 -45 -86 -5 -99 -14 -94 -69 l3 -38
76 -6 c87 -7 108 -17 145 -64 38 -50 51 -45 59 24 4 37 12 62 21 65 18 7 18
40 0 55 -8 7 -18 37 -22 67 -8 67 -24 69 -76 11z"/>
</g>
</svg>
