<?xml version="1.0" standalone="no"?>
<!DOCTYPE svg PUBLIC "-//W3C//DTD SVG 20010904//EN"
 "http://www.w3.org/TR/2001/REC-SVG-20010904/DTD/svg10.dtd">
<svg version="1.0" xmlns="http://www.w3.org/2000/svg"
 width="32.000000pt" height="32.000000pt" viewBox="0 0 32.000000 32.000000"
 preserveAspectRatio="xMidYMid meet">
<metadata>
Created by potrace 1.16, written by Peter Selinger 2001-2019
</metadata>
<g transform="translate(0.000000,32.000000) scale(0.100000,-0.100000)"
fill="#000000" stroke="none">
<path d="M71 267 c-34 -17 -48 -73 -27 -108 22 -38 20 -46 -14 -52 -26 -6 -30
-11 -29 -39 0 -29 1 -30 9 -11 5 12 17 26 27 31 14 8 20 6 29 -10 6 -12 23
-22 38 -24 21 -2 29 3 36 22 8 21 13 23 30 14 11 -6 20 -20 20 -30 0 -11 5
-20 11 -20 7 0 10 12 7 30 -5 34 -4 34 23 20 10 -6 19 -20 19 -30 0 -11 5 -20
11 -20 7 0 9 11 6 30 -5 23 -3 28 9 23 8 -3 21 -17 29 -32 l15 -26 -2 35 c-2
26 -8 36 -23 38 -45 7 -47 10 -30 43 21 40 12 105 -17 120 -14 7 -23 8 -30 1
-7 -7 -16 -7 -29 1 -23 14 -38 1 -17 -16 23 -18 29 -69 12 -101 -7 -16 -11
-33 -8 -38 4 -6 -2 -8 -12 -6 -13 3 -17 10 -14 23 3 11 5 44 5 73 0 69 -27 88
-84 59z"/>
</g>
</svg>
